<svg viewBox="0 0 100 100" fill="none" aria-hidden="true">
  <rect x="46" y="12" width="8" height="5" rx="2" stroke="currentColor" stroke-width="1.5" fill="currentColor" opacity="0.2"/>
  <rect x="44" y="19" width="8" height="5" rx="2" stroke="currentColor" stroke-width="1.5" fill="currentColor" opacity="0.25"/>
  <rect x="42" y="26" width="8" height="5" rx="2" stroke="currentColor" stroke-width="1.5" fill="currentColor" opacity="0.3"/>
  <rect x="40" y="33" width="8" height="5" rx="2" stroke="currentColor" stroke-width="1.5" fill="currentColor" opacity="0.35"/>
  <rect x="41" y="40" width="8" height="5" rx="2" stroke="currentColor" stroke-width="1.5" fill="currentColor" opacity="0.4"/>
  <rect x="43" y="47" width="8" height="5" rx="2" stroke="currentColor" stroke-width="1.5" fill="currentColor" opacity="0.45"/>
  <rect x="45" y="54" width="8" height="5" rx="2" stroke="currentColor" stroke-width="1.5" fill="currentColor" opacity="0.5"/>
  <rect x="47" y="61" width="8" height="5" rx="2" stroke="currentColor" stroke-width="1.5" fill="currentColor" opacity="0.55"/>
  <rect x="48" y="68" width="8" height="5" rx="2" stroke="currentColor" stroke-width="1.5" fill="currentColor" opacity="0.6"/>
  <rect x="48" y="75" width="8" height="5" rx="2" stroke="currentColor" stroke-width="1.5" fill="currentColor" opacity="0.65"/>
  <rect x="47" y="82" width="8" height="5" rx="2" stroke="currentColor" stroke-width="1.5" fill="currentColor" opacity="0.7"/>
  <path d="M32 32 L38 35" stroke="currentColor" stroke-width="2" stroke-linecap="round" opacity="0.6"/>
  <path d="M32 32 L36 28" stroke="currentColor" stroke-width="2" stroke-linecap="round" opacity="0.6"/>
  <path d="M65 52 L58 55" stroke="currentColor" stroke-width="2" stroke-linecap="round" opacity="0.6"/>
  <path d="M65 52 L62 47" stroke="currentColor" stroke-width="2" stroke-linecap="round" opacity="0.6"/>
  <path d="M25 45 C20 40, 18 50, 22 55" stroke="currentColor" stroke-width="1.5" stroke-linecap="round" fill="none" opacity="0.4"/>
  <path d="M38 25 C32 28, 30 35, 35 40" stroke="currentColor" stroke-width="1.5" fill="none" opacity="0.25"/>
  <path d="M52 25 C58 28, 60 35, 55 40" stroke="currentColor" stroke-width="1.5" fill="none" opacity="0.25"/>
</svg>
